<?xml version="1.0" standalone="no"?><!DOCTYPE svg PUBLIC "-//W3C//DTD SVG 1.1//EN" "http://www.w3.org/Graphics/SVG/1.1/DTD/svg11.dtd"><svg t="1627366517779" class="icon" viewBox="0 0 1205 1024" version="1.1" xmlns="http://www.w3.org/2000/svg" p-id="5584" xmlns:xlink="http://www.w3.org/1999/xlink" width="235.3515625" height="200"><defs><style type="text/css">@font-face { font-family: feedback-iconfont; src: url("//at.alicdn.com/t/font_1031158_1uhr8ri0pk5.eot?#iefix") format("embedded-opentype"), url("//at.alicdn.com/t/font_1031158_1uhr8ri0pk5.woff2") format("woff2"), url("//at.alicdn.com/t/font_1031158_1uhr8ri0pk5.woff") format("woff"), url("//at.alicdn.com/t/font_1031158_1uhr8ri0pk5.ttf") format("truetype"), url("//at.alicdn.com/t/font_1031158_1uhr8ri0pk5.svg#iconfont") format("svg"); }
</style></defs><path d="M96.118995 0h452.072132a702.56078 702.56078 0 0 1 95.204727 95.204727l190.409455 309.315149a95.204727 95.204727 0 0 1-95.204727 95.204727H96.118995a95.204727 95.204727 0 0 1-95.204727-95.204727V95.204727A95.204727 95.204727 0 0 1 96.118995 0z" fill="#A1CBFE" p-id="5585"></path><path d="M95.217056 190.359347h1013.930346A83.730052 83.730052 0 0 1 1203.500298 285.564074v642.381371a83.730052 83.730052 0 0 1-94.302788 95.204728H95.217056A83.730052 83.730052 0 0 1 0.914268 927.945445V285.564074a83.730052 83.730052 0 0 1 94.302788-95.204727z" fill="#4799FE" p-id="5586"></path><path d="M333.228874 785.188462h537.956817a41.689649 41.689649 0 0 1 46.80064 47.602364 41.689649 41.689649 0 0 1-46.80064 47.602363H333.228874a41.689649 41.689649 0 0 1-46.80064-47.602363 41.689649 41.689649 0 0 1 46.80064-47.602364z" fill="#FFFFFF" p-id="5587"></path><path d="M1060.743314 261.712785h23.801182a42.040403 42.040403 0 0 1 47.602364 47.602363v23.801182a42.040403 42.040403 0 0 1-47.602364 47.602364h-23.801182a42.040403 42.040403 0 0 1-47.602363-47.602364v-23.801182a42.040403 42.040403 0 0 1 47.602363-47.602363z" fill="#A1CBFE" p-id="5588"></path></svg>